<svg id="call-24px" xmlns="http://www.w3.org/2000/svg" width="62.088" height="62.088" viewBox="0 0 62.088 62.088">
  <path id="Path_1698" data-name="Path 1698" d="M0,0H62.088V62.088H0Z" fill="none"/>
  <path id="Path_1699" data-name="Path 1699" d="M47,35.027a29.6,29.6,0,0,1-9.132-1.449,2.528,2.528,0,0,0-2.613.621L31.2,39.3A39.279,39.279,0,0,1,13.374,21.626l5.045-4.294a2.64,2.64,0,0,0,.621-2.639,28.852,28.852,0,0,1-1.449-9.132A2.584,2.584,0,0,0,15.03,3H6.079C4.682,3,3,3.621,3,5.561a44.372,44.372,0,0,0,44,44c1.837,0,2.561-1.63,2.561-3.053V37.588A2.584,2.584,0,0,0,47,35.027Z" transform="translate(4.761 4.761)"/>
</svg>
