<svg xmlns="http://www.w3.org/2000/svg" width="44.5" height="44.5" viewBox="0 0 44.5 44.5">
  <g id="portrait-24px" opacity="0.5">
    <path id="Path_1694" data-name="Path 1694" d="M0,0H44.5V44.5H0Z" fill="none"/>
    <path id="Path_1695" data-name="Path 1695" d="M19.688,20.151a4.172,4.172,0,1,0-4.172-4.172A4.178,4.178,0,0,0,19.688,20.151Zm8.344,7.417c0-2.781-5.562-4.172-8.344-4.172s-8.344,1.391-8.344,4.172v1.391H28.031ZM32.667,3H6.708A3.719,3.719,0,0,0,3,6.708V32.667a3.719,3.719,0,0,0,3.708,3.708H32.667a3.719,3.719,0,0,0,3.708-3.708V6.708A3.719,3.719,0,0,0,32.667,3Zm0,29.667H6.708V6.708H32.667Z" transform="translate(2.563 2.563)"/>
  </g>
</svg>
