<svg xmlns="http://www.w3.org/2000/svg" xmlns:xlink="http://www.w3.org/1999/xlink" width="125.505" height="125.505" viewBox="0 0 125.505 125.505">
  <defs>
    <filter id="Path_1702" x="0" y="0" width="125.505" height="125.505" filterUnits="userSpaceOnUse">
      <feOffset input="SourceAlpha"/>
      <feGaussianBlur stdDeviation="10" result="blur"/>
      <feFlood flood-color="#fff" flood-opacity="0.502"/>
      <feComposite operator="in" in2="blur"/>
      <feComposite in="SourceGraphic"/>
    </filter>
  </defs>
  <g id="Group_899" data-name="Group 899" transform="translate(-1530.495 -1011.624)" opacity="0.7">
    <g id="Group_897" data-name="Group 897" transform="translate(1560.495 1041.624)">
      <g transform="matrix(1, 0, 0, 1, -30, -30)" filter="url(#Path_1702)">
        <path id="Path_1702-2" data-name="Path 1702" d="M32.761,0h-.016A32.732,32.732,0,0,0,6.235,51.949L2.153,64.117l12.589-4.024A32.747,32.747,0,1,0,32.761,0Z" transform="translate(30 30)" fill="#4caf50"/>
      </g>
      <path id="Path_1703" data-name="Path 1703" d="M145.359,148.358c-.79,2.231-3.926,4.082-6.428,4.622-1.711.364-3.947.655-11.472-2.465-9.625-3.988-15.824-13.768-16.307-14.4-.463-.635-3.889-5.179-3.889-9.879a10.456,10.456,0,0,1,3.349-7.971,4.759,4.759,0,0,1,3.349-1.175c.405,0,.77.02,1.1.037.962.041,1.445.1,2.08,1.617.79,1.9,2.714,6.6,2.944,7.087a1.95,1.95,0,0,1,.139,1.773,5.661,5.661,0,0,1-1.06,1.5c-.483.557-.942.983-1.425,1.58-.442.52-.942,1.077-.385,2.039a29.071,29.071,0,0,0,5.314,6.6,24.079,24.079,0,0,0,7.68,4.737,2.071,2.071,0,0,0,2.309-.364,39.611,39.611,0,0,0,2.559-3.39,1.828,1.828,0,0,1,2.35-.712c.884.307,5.564,2.62,6.526,3.1s1.6.712,1.83,1.118A8.157,8.157,0,0,1,145.359,148.358Z" transform="translate(-93.541 -102.108)" fill="#fafafa"/>
    </g>
  </g>
</svg>
